<svg width="1179" height="1248" viewBox="0 0 1179 1248" fill="none" xmlns="http://www.w3.org/2000/svg">
<g filter="url(#filter0_i_106_10)">
<path d="M896.053 37.2757L700.821 519.271L1169.4 344.315L732.414 601.977L1178.8 777.451L704.53 690.217L919.849 1134.01L630.215 742.702L513.722 1247.16L544.243 734.874L150.445 1063.96L486.841 670.396L0.00061162 670.119L484.867 579.437L132.783 249.929L539.246 504.559L486.662 -0.00023892L624.533 480.797L896.053 37.2757Z" fill="url(#paint0_linear_106_10)" fill-opacity="0.7"/>
</g>
<path d="M700.358 519.083L699.93 520.137L700.996 519.739L1164.25 346.773L732.16 601.546L731.277 602.067L732.231 602.442L1173.8 776.023L704.621 689.725L703.649 689.546L704.08 690.435L917.052 1129.4L630.617 742.404L629.973 741.533L629.728 742.59L514.575 1241.24L544.743 734.904L544.812 733.748L543.922 734.49L154.699 1059.75L487.221 670.721L487.925 669.896L486.841 669.896L5.37634 669.623L484.959 579.929L485.93 579.747L485.209 579.071L136.902 253.099L538.981 504.983L539.849 505.527L539.744 504.507L487.748 5.60352L624.052 480.935L624.366 482.028L624.959 481.058L893.311 42.7121L700.358 519.083Z" stroke="#EBFF86"/>
<defs>
<filter id="filter0_i_106_10" x="0" y="0" width="1178.8" height="1251.17" filterUnits="userSpaceOnUse" color-interpolation-filters="sRGB">
<feFlood flood-opacity="0" result="BackgroundImageFix"/>
<feBlend mode="normal" in="SourceGraphic" in2="BackgroundImageFix" result="shape"/>
<feColorMatrix in="SourceAlpha" type="matrix" values="0 0 0 0 0 0 0 0 0 0 0 0 0 0 0 0 0 0 127 0" result="hardAlpha"/>
<feOffset dy="4"/>
<feGaussianBlur stdDeviation="2"/>
<feComposite in2="hardAlpha" operator="arithmetic" k2="-1" k3="1"/>
<feColorMatrix type="matrix" values="0 0 0 0 0 0 0 0 0 0 0 0 0 0 0 0 0 0 0.25 0"/>
<feBlend mode="normal" in2="shape" result="effect1_innerShadow_106_10"/>
</filter>
<linearGradient id="paint0_linear_106_10" x1="825.63" y1="1.76015" x2="1245.05" y2="496.037" gradientUnits="userSpaceOnUse">
<stop stop-color="#6F97B6"/>
<stop offset="0.5" stop-color="#8CCDCF"/>
<stop offset="1" stop-color="#D6EBDF"/>
</linearGradient>
</defs>
</svg>
